<svg width="165" height="44" viewBox="0 0 165 44" fill="none" xmlns="http://www.w3.org/2000/svg">
<path opacity="0.8" d="M18.5405 0L0 12.287V12.3101L14.3367 21.8062L18.5405 19.0152V0Z" fill="#216FB9"/>
<path opacity="0.8" d="M0 31.3369L18.5405 43.6122V24.5971L14.3367 21.8062L0 31.3022V31.3369Z" fill="#216FB9"/>
<path opacity="0.8" d="M38.899 12.5883L20.3588 0.30127V19.3165L24.5741 22.1074L38.899 12.6114V12.5883Z" fill="#216FB9"/>
<path opacity="0.8" d="M20.3588 43.9137L38.899 31.6265V31.6033L24.5741 22.1073L20.3588 24.8982V43.9137Z" fill="#216FB9"/>
<path opacity="0.8" d="M0 12.3102V31.3023L14.3367 21.8062L0 12.3102Z" fill="#0B1538"/>
<path opacity="0.8" d="M38.8995 31.6034V12.6113L24.5742 22.1074L38.8995 31.6034Z" fill="#0B1538"/>
<path d="M51.9686 10.2489L49.0913 16.8311C48.7306 17.6586 48.3911 18.2528 48.0728 18.6135C47.7587 18.9742 47.3853 19.2437 46.9524 19.4219C46.5195 19.5959 45.9933 19.6829 45.3737 19.6829C44.8432 19.6829 44.3488 19.6193 43.8905 19.4919V17.7987C44.2639 17.9515 44.7286 18.0278 45.2846 18.0278C45.6368 18.0278 45.9211 17.9472 46.1376 17.7859C46.354 17.6204 46.5344 17.3361 46.6787 16.9329L43.4576 10.2489H45.5456L47.8373 15.437H47.9009L48.0155 15.1187L49.938 10.2489H51.9686ZM59.4609 12.4387V19.5556H57.5129V13.8964H54.9348V19.5556H52.9935V12.4387H59.4609ZM65.4068 19.6829C64.5709 19.6829 63.9152 19.3795 63.4399 18.7726H63.3378C63.4057 19.3667 63.4399 19.7105 63.4399 19.8039V22.6875H61.4979V12.4387H63.077L63.3508 13.3618H63.4399C63.894 12.6573 64.5665 12.305 65.4574 12.305C66.2977 12.305 66.9555 12.6297 67.4309 13.279C67.9062 13.9283 68.1441 14.8301 68.1441 15.9844C68.1441 16.7441 68.0316 17.404 67.8068 17.9642C67.5857 18.5244 67.2695 18.9509 66.8583 19.2437C66.4466 19.5365 65.9626 19.6829 65.4068 19.6829ZM64.8338 13.8583C64.3541 13.8583 64.0043 14.0068 63.7832 14.3039C63.5627 14.5967 63.448 15.0826 63.4399 15.7616V15.9717C63.4399 16.7356 63.5523 17.283 63.7772 17.6141C64.0065 17.9451 64.3671 18.1106 64.8593 18.1106C65.729 18.1106 66.1641 17.3934 66.1641 15.959C66.1641 15.2587 66.056 14.7346 65.8398 14.3866C65.6274 14.0344 65.2922 13.8583 64.8338 13.8583ZM74.2677 19.5556L73.8923 18.588H73.8413C73.5143 18.9997 73.1769 19.2861 72.8293 19.4474C72.4854 19.6044 72.0356 19.6829 71.4794 19.6829C70.7966 19.6829 70.2572 19.4877 69.8628 19.0972C69.4722 18.7068 69.2772 18.1509 69.2772 17.4294C69.2772 16.674 69.5401 16.1181 70.0665 15.7616C70.5967 15.4009 71.3947 15.2015 72.4599 15.1633L73.6951 15.1251V14.8131C73.6951 14.0917 73.3258 13.7309 72.587 13.7309C72.0188 13.7309 71.3501 13.9029 70.582 14.2466L69.9389 12.9352C70.758 12.5066 71.6663 12.2923 72.6636 12.2923C73.6186 12.2923 74.3508 12.5002 74.8598 12.9161C75.3693 13.3321 75.6235 13.9643 75.6235 14.8131V19.5556H74.2677ZM73.6951 16.2582L72.9439 16.2836C72.3795 16.3006 71.9591 16.4024 71.6831 16.5892C71.4077 16.7759 71.2697 17.0602 71.2697 17.4422C71.2697 17.9896 71.5837 18.2634 72.2116 18.2634C72.6614 18.2634 73.0199 18.1339 73.2877 17.875C73.5593 17.6162 73.6951 17.2724 73.6951 16.8438V16.2582ZM84.1981 14.3039C84.1981 14.6858 84.0775 15.0126 83.8352 15.2842C83.5979 15.5516 83.2459 15.7234 82.7787 15.7998V15.8508C83.2839 15.9102 83.6826 16.0842 83.9754 16.3727C84.2725 16.6571 84.4214 17.0093 84.4214 17.4294C84.4214 18.1212 84.1498 18.6495 83.6066 19.0145C83.0633 19.3753 82.2866 19.5556 81.2767 19.5556H77.6291V12.4387H81.2767C82.2523 12.4387 82.9824 12.5978 83.4664 12.9161C83.9542 13.2302 84.1981 13.6927 84.1981 14.3039ZM82.4093 17.3276C82.4093 17.0475 82.3012 16.8459 82.085 16.7229C81.8683 16.5955 81.544 16.5319 81.111 16.5319H79.5705V18.2124H81.1491C81.5608 18.2124 81.8726 18.136 82.085 17.9833C82.3012 17.8262 82.4093 17.6077 82.4093 17.3276ZM82.2312 14.4567C82.2312 14.0238 81.8878 13.8074 81.2001 13.8074H79.5705V15.2142H80.9774C81.3892 15.2142 81.701 15.1547 81.9128 15.0359C82.1252 14.9171 82.2312 14.724 82.2312 14.4567ZM92.3403 19.5556H90.3989V13.8964H88.6101C88.4743 15.4879 88.3086 16.6762 88.113 17.4613C87.918 18.2421 87.6573 18.8087 87.3303 19.1609C87.0076 19.5089 86.5833 19.6829 86.057 19.6829C85.6072 19.6829 85.2384 19.615 84.9494 19.4792V17.926C85.1574 18.0108 85.3655 18.0533 85.5735 18.0533C85.8153 18.0533 86.0168 17.8793 86.1781 17.5313C86.3438 17.1833 86.4899 16.604 86.6176 15.7934C86.749 14.9786 86.8615 13.8604 86.9549 12.4387H92.3403V19.5556ZM97.3308 13.6864C96.919 13.6864 96.5969 13.818 96.3633 14.0811C96.1297 14.3399 95.9961 14.7091 95.9624 15.1887H98.6866C98.6785 14.7091 98.553 14.3399 98.3112 14.0811C98.0695 13.818 97.7425 13.6864 97.3308 13.6864ZM97.6045 19.6829C96.4589 19.6829 95.5631 19.3667 94.9184 18.7344C94.273 18.1021 93.9509 17.2067 93.9509 16.0481C93.9509 14.8556 94.2475 13.9346 94.8418 13.2853C95.4404 12.6318 96.2655 12.305 97.3183 12.305C98.3237 12.305 99.107 12.5915 99.6671 13.1644C100.227 13.7373 100.507 14.5288 100.507 15.5388V16.4809H95.9179C95.9391 17.0327 96.1026 17.4634 96.4078 17.7732C96.7137 18.083 97.1423 18.2379 97.6936 18.2379C98.1222 18.2379 98.5274 18.1933 98.9093 18.1042C99.2917 18.0151 99.6905 17.8729 100.107 17.6777V19.18C99.7671 19.3498 99.4042 19.475 99.018 19.5556C98.6317 19.6405 98.1608 19.6829 97.6045 19.6829ZM104.027 12.4387V15.176H106.74V12.4387H108.681V19.5556H106.74V16.621H104.027V19.5556H102.086V12.4387H104.027ZM112.596 12.4387V15.2524C112.596 15.5494 112.547 16.2751 112.449 17.4294L115.734 12.4387H118.071V19.5556H116.193V16.7165C116.193 16.2115 116.235 15.4985 116.32 14.5776L113.048 19.5556H110.718V12.4387H112.596ZM123.061 13.6864C122.65 13.6864 122.327 13.818 122.094 14.0811C121.86 14.3399 121.726 14.7091 121.693 15.1887H124.417C124.409 14.7091 124.283 14.3399 124.041 14.0811C123.8 13.818 123.473 13.6864 123.061 13.6864ZM123.335 19.6829C122.189 19.6829 121.294 19.3667 120.649 18.7344C120.004 18.1021 119.681 17.2067 119.681 16.0481C119.681 14.8556 119.978 13.9346 120.572 13.2853C121.171 12.6318 121.996 12.305 123.048 12.305C124.055 12.305 124.837 12.5915 125.397 13.1644C125.957 13.7373 126.238 14.5288 126.238 15.5388V16.4809H121.648C121.669 17.0327 121.833 17.4634 122.138 17.7732C122.444 18.083 122.872 18.2379 123.424 18.2379C123.852 18.2379 124.258 18.1933 124.64 18.1042C125.022 18.0151 125.421 17.8729 125.837 17.6777V19.18C125.497 19.3498 125.134 19.475 124.748 19.5556C124.362 19.6405 123.891 19.6829 123.335 19.6829ZM52.2551 33.6791H50.2881V29.6623H46.6023V33.6791H44.6289V24.3724H46.6023V28.0199H50.2881V24.3724H52.2551V33.6791ZM57.4048 27.8099C56.9931 27.8099 56.671 27.9414 56.4374 28.2045C56.2038 28.4634 56.0702 28.8326 56.0365 29.3121H58.7607C58.7525 28.8326 58.627 28.4634 58.3853 28.2045C58.1436 27.9414 57.8166 27.8099 57.4048 27.8099ZM57.6786 33.8064C56.533 33.8064 55.6372 33.4902 54.9924 32.8579C54.3471 32.2255 54.0248 31.3301 54.0248 30.1716C54.0248 28.9791 54.3216 28.0581 54.9158 27.4088C55.5145 26.7553 56.3396 26.4285 57.3923 26.4285C58.3978 26.4285 59.1811 26.715 59.7412 27.2879C60.3012 27.8608 60.5815 28.6523 60.5815 29.6623V30.6044H55.9919C56.0131 31.1561 56.1766 31.5868 56.4819 31.8967C56.7877 32.2065 57.2163 32.3614 57.7677 32.3614C58.1963 32.3614 58.6015 32.3168 58.9834 32.2277C59.3658 32.1386 59.7645 31.9964 60.1806 31.8012V33.3035C59.8411 33.4732 59.4783 33.5985 59.092 33.6791C58.7058 33.7639 58.2349 33.8064 57.6786 33.8064ZM66.616 32.2595V28.0199H65.1586C65.0521 28.8093 64.906 29.5583 64.7191 30.2671C64.5366 30.9757 64.2819 31.6399 63.9554 32.2595H66.616ZM69.6015 36.2317H67.8573V33.6791H63.0705V36.2317H61.3263V32.2595H61.9249C62.3323 31.6272 62.6734 30.8293 62.9494 29.866C63.2253 28.9026 63.4187 27.8014 63.529 26.5621H68.5575V32.2595H69.6015V36.2317ZM77.3868 28.4273C77.3868 28.8093 77.2662 29.136 77.0239 29.4076C76.7866 29.675 76.434 29.8469 75.9674 29.9233V29.9742C76.4726 30.0336 76.8713 30.2076 77.1641 30.4962C77.4612 30.7806 77.6101 31.1328 77.6101 31.5529C77.6101 32.2447 77.3385 32.773 76.7952 33.138C76.252 33.4987 75.4752 33.6791 74.4649 33.6791H70.8178V26.5621H74.4649C75.441 26.5621 76.1711 26.7213 76.6551 27.0396C77.1429 27.3537 77.3868 27.8162 77.3868 28.4273ZM75.598 31.451C75.598 31.171 75.4899 30.9694 75.2737 30.8463C75.057 30.719 74.7327 30.6553 74.2997 30.6553H72.7592V32.3359H74.3378C74.7495 32.3359 75.0613 32.2595 75.2737 32.1067C75.4899 31.9497 75.598 31.7312 75.598 31.451ZM75.4198 28.5801C75.4198 28.1472 75.076 27.9308 74.3888 27.9308H72.7592V29.3376H74.1661C74.5779 29.3376 74.8897 29.2782 75.1015 29.1594C75.3139 29.0405 75.4198 28.8475 75.4198 28.5801ZM81.0345 26.5621V29.3758C81.0345 29.6729 80.9856 30.3986 80.8883 31.5529L84.1731 26.5621H86.5089V33.6791H84.6311V30.8399C84.6311 30.335 84.6734 29.6219 84.7587 28.701L81.4864 33.6791H79.1566V26.5621H81.0345ZM92.3213 30.0188V26.5621H94.1291V30.0188L96.6626 26.5621H98.6676L96.045 29.9742L98.9158 33.6791H96.8408L94.1291 30.0697V33.6791H92.3213V30.0697L89.609 33.6791H87.534L90.4048 29.9742L87.7822 26.5621H89.7877L92.3213 30.0188ZM101.812 26.5621V29.3758C101.812 29.6729 101.763 30.3986 101.666 31.5529L104.951 26.5621H107.287V33.6791H105.409V30.8399C105.409 30.335 105.451 29.6219 105.536 28.701L102.264 33.6791H99.9344V26.5621H101.812ZM118.3 33.6791H116.485V28.0709L116.383 28.4655C116.155 29.361 115.949 30.0379 115.766 30.4962L114.505 33.6791H113.124L111.845 30.4708C111.662 30.0039 111.467 29.3482 111.259 28.5037L111.138 28.0709V33.6791H109.33V26.5621H112.004L113.226 29.5986C113.353 29.9254 113.47 30.301 113.576 30.7254C113.687 31.1498 113.761 31.5126 113.799 31.8139C113.939 31.1773 114.048 30.7211 114.124 30.4453C114.204 30.1652 114.291 29.9084 114.385 29.675C114.478 29.4416 114.9 28.404 115.652 26.5621H118.3V33.6791ZM121.89 30.1079C121.89 30.8124 122.004 31.345 122.234 31.7057C122.467 32.0664 122.845 32.2468 123.367 32.2468C123.884 32.2468 124.256 32.0686 124.481 31.7121C124.71 31.3513 124.825 30.8166 124.825 30.1079C124.825 29.4034 124.71 28.875 124.481 28.5228C124.252 28.1706 123.876 27.9945 123.354 27.9945C122.836 27.9945 122.463 28.1706 122.234 28.5228C122.004 28.8708 121.89 29.3992 121.89 30.1079ZM126.811 30.1079C126.811 31.2665 126.505 32.1725 125.894 32.8261C125.283 33.4796 124.432 33.8064 123.341 33.8064C122.658 33.8064 122.055 33.6578 121.533 33.3608C121.011 33.0595 120.611 32.6287 120.33 32.0686C120.05 31.5083 119.91 30.8548 119.91 30.1079C119.91 28.9451 120.213 28.0411 120.82 27.3961C121.428 26.751 122.28 26.4285 123.379 26.4285C124.063 26.4285 124.666 26.577 125.187 26.8741C125.709 27.1711 126.111 27.5977 126.39 28.1536C126.671 28.7096 126.811 29.361 126.811 30.1079ZM131.305 33.8064C129.09 33.8064 127.982 32.5905 127.982 30.1588C127.982 28.9493 128.283 28.0263 128.886 27.3897C129.488 26.7489 130.352 26.4285 131.477 26.4285C132.3 26.4285 133.039 26.5897 133.692 26.9123L133.119 28.4146C132.814 28.2915 132.529 28.1918 132.266 28.1154C132.003 28.0348 131.74 27.9945 131.477 27.9945C130.467 27.9945 129.962 28.7117 129.962 30.1461C129.962 31.5381 130.467 32.234 131.477 32.234C131.85 32.234 132.196 32.1852 132.514 32.0876C132.833 31.9858 133.151 31.8288 133.469 31.6166V33.278C133.155 33.4775 132.837 33.6154 132.514 33.6918C132.196 33.7682 131.793 33.8064 131.305 33.8064ZM141.012 26.5621V28.0199H138.683V33.6791H136.741V28.0199H134.405V26.5621H141.012ZM144.285 29.3121H145.653C146.748 29.3121 147.559 29.4861 148.085 29.8342C148.611 30.1822 148.874 30.7084 148.874 31.4129C148.874 32.9237 147.826 33.6791 145.73 33.6791H142.343V26.5621H144.285V29.3121ZM146.933 31.4383C146.933 31.1625 146.823 30.963 146.602 30.8399C146.381 30.7169 146.052 30.6553 145.615 30.6553H144.285V32.3359H145.641C146.502 32.3359 146.933 32.0367 146.933 31.4383ZM160.18 30.1079C160.18 31.2749 159.885 32.1831 159.295 32.8324C158.705 33.4817 157.888 33.8064 156.844 33.8064C155.906 33.8064 155.155 33.5433 154.591 33.017C154.03 32.4908 153.691 31.7333 153.572 30.7445H152.293V33.6791H150.351V26.5621H152.293V29.2994H153.598C153.721 28.3912 154.071 27.6868 154.648 27.186C155.229 26.681 155.974 26.4285 156.882 26.4285C157.888 26.4285 158.688 26.7595 159.282 27.4216C159.881 28.0793 160.18 28.9748 160.18 30.1079ZM155.526 30.1079C155.526 30.8166 155.63 31.3513 155.838 31.7121C156.046 32.0686 156.39 32.2468 156.87 32.2468C157.341 32.2468 157.68 32.0686 157.888 31.7121C158.096 31.3513 158.2 30.8166 158.2 30.1079C158.2 29.3992 158.094 28.8708 157.882 28.5228C157.674 28.1706 157.332 27.9945 156.857 27.9945C156.386 27.9945 156.046 28.1706 155.838 28.5228C155.63 28.875 155.526 29.4034 155.526 30.1079Z" fill="#3C4460"/>
</svg>
