<svg width="20" height="18" viewBox="0 0 20 18" fill="none" xmlns="http://www.w3.org/2000/svg">
<path d="M9.70711 0.292893C10.0676 0.653377 10.0953 1.22061 9.7903 1.6129L9.70711 1.70711L3.415 7.999L19 7.99999C19.5523 7.99999 20 8.44772 20 9C20 9.51284 19.614 9.93551 19.1166 9.99327L19 10L3.413 9.999L9.70711 16.2929C10.0676 16.6534 10.0953 17.2206 9.7903 17.6129L9.70711 17.7071C9.34662 18.0676 8.77939 18.0953 8.3871 17.7903L8.29289 17.7071L0.292893 9.70711C-0.0675908 9.34662 -0.0953202 8.77939 0.209705 8.3871L0.292893 8.29289L8.29289 0.292893C8.68342 -0.0976311 9.31658 -0.0976311 9.70711 0.292893Z" fill="black"/>
</svg>
