<svg width="18" height="20" viewBox="0 0 18 20" fill="none" xmlns="http://www.w3.org/2000/svg">
<path d="M9.27698 16L4.5145 18.8575C3.8813 19.2374 3.08434 18.8231 3.00623 18.1143L3 18V16H2C0.89543 16 0 15.1046 0 14V2C0 0.89543 0.89543 0 2 0H16C17.1046 0 18 0.89543 18 2V14C18 15.1046 17.1046 16 16 16H9.27698ZM16 14V2H2V14H5V16.2338L8.4855 14.1425C8.60207 14.0726 8.73124 14.0274 8.865 14.0092L9 14H16ZM5 7C5.55228 7 6 7.44772 6 8C6 8.55228 5.55228 9 5 9C4.44772 9 4 8.55228 4 8C4 7.44772 4.44772 7 5 7ZM9 7C9.55228 7 10 7.44772 10 8C10 8.55228 9.55228 9 9 9C8.44772 9 8 8.55228 8 8C8 7.44772 8.44772 7 9 7ZM13 7C13.5523 7 14 7.44772 14 8C14 8.55228 13.5523 9 13 9C12.4477 9 12 8.55228 12 8C12 7.44772 12.4477 7 13 7Z" fill="black"/>
</svg>
