<svg width="16" height="21" viewBox="0 0 16 21" fill="none" xmlns="http://www.w3.org/2000/svg">
<path d="M14 0.00244141C15.1046 0.00244141 16 0.897872 16 2.00244V18.0024C16 19.107 15.1046 20.0024 14 20.0024H2C0.89543 20.0024 0 19.107 0 18.0024V2.00244C0 0.897872 0.89543 0.00244141 2 0.00244141H14ZM14 2.00244H2V18.0024H14V2.00244ZM11 14.0024C11.5523 14.0024 12 14.4502 12 15.0024C12 15.5547 11.5523 16.0024 11 16.0024H5C4.44772 16.0024 4 15.5547 4 15.0024C4 14.4502 4.44772 14.0024 5 14.0024H11ZM11 10.0024C11.5523 10.0024 12 10.4502 12 11.0024C12 11.5547 11.5523 12.0024 11 12.0024H5C4.44772 12.0024 4 11.5547 4 11.0024C4 10.4502 4.44772 10.0024 5 10.0024H11ZM11 6.00244C11.5523 6.00244 12 6.45016 12 7.00244C12 7.55473 11.5523 8.00244 11 8.00244H5C4.44772 8.00244 4 7.55473 4 7.00244C4 6.45016 4.44772 6.00244 5 6.00244H11Z" fill="#5589F1"/>
</svg>
