<svg width="16" height="18" viewBox="0 0 16 18" fill="none" xmlns="http://www.w3.org/2000/svg">
    <path d="M4 8V10H2V16H14V10H12V8H14C15.0544 8 15.9182 8.81588 15.9945 9.85074L16 10V16C16 17.0544 15.1841 17.9182 14.1493 17.9945L14 18H2C0.945638 18 0.0818347 17.1841 0.00548553 16.1493L0 16V10C0 8.94564 0.815878 8.08183 1.85074 8.00549L2 8H4ZM8.6129 0.209705L8.70711 0.292893L12.7071 4.29289C13.0976 4.68342 13.0976 5.31658 12.7071 5.70711C12.3466 6.06759 11.7794 6.09532 11.3871 5.7903L11.2929 5.70711L8.999 3.414L9 13C9 13.5523 8.55228 14 8 14C7.44772 14 7 13.5523 7 13L6.999 3.416L4.70711 5.70711C4.34662 6.06759 3.77939 6.09532 3.3871 5.7903L3.29289 5.70711C2.93241 5.34662 2.90468 4.77939 3.2097 4.3871L3.29289 4.29289L7.29289 0.292893C7.65338 -0.0675908 8.22061 -0.0953202 8.6129 0.209705Z" fill="black"/>
</svg>