<svg width="20" height="14" viewBox="0 0 20 14" fill="none" xmlns="http://www.w3.org/2000/svg">
<path d="M10 0C13.7097 0 16.9956 2.1906 19.8321 6.4453C20.056 6.7812 20.056 7.2188 19.8321 7.5547C16.9956 11.8094 13.7097 14 10 14C6.29032 14 3.00442 11.8094 0.16795 7.5547C-0.0559832 7.2188 -0.0559832 6.7812 0.16795 6.4453C3.00442 2.1906 6.29032 0 10 0ZM10 2C7.19292 2 4.60473 3.63059 2.21347 7C4.60473 10.3694 7.19292 12 10 12C12.7165 12 15.2281 10.4729 17.5545 7.32065L17.7865 7L17.5545 6.67935C15.2281 3.52709 12.7165 2 10 2ZM10 4C11.6569 4 13 5.34315 13 7C13 8.65685 11.6569 10 10 10C8.34315 10 7 8.65685 7 7C7 5.34315 8.34315 4 10 4ZM10 6C9.44772 6 9 6.44772 9 7C9 7.55228 9.44772 8 10 8C10.5523 8 11 7.55228 11 7C11 6.44772 10.5523 6 10 6Z" fill="#151515"/>
</svg>
