<svg width="20" height="17" viewBox="0 0 20 17" fill="none" xmlns="http://www.w3.org/2000/svg">
<path d="M10 1C13.7097 1 16.9956 3.1906 19.8321 7.4453C20.056 7.7812 20.056 8.2188 19.8321 8.5547C16.9956 12.8094 13.7097 15 10 15C6.29032 15 3.00442 12.8094 0.16795 8.5547C-0.0559832 8.2188 -0.0559832 7.7812 0.16795 7.4453C3.00442 3.1906 6.29032 1 10 1ZM10 3C7.19292 3 4.60473 4.63059 2.21347 8C4.60473 11.3694 7.19292 13 10 13C12.7165 13 15.2281 11.4729 17.5545 8.32065L17.7865 8L17.5545 7.67935C15.2281 4.52709 12.7165 3 10 3ZM18.7071 0.292893C19.0676 0.653377 19.0953 1.22061 18.7903 1.6129L18.7071 1.70711L12.952 7.46232C12.9835 7.63676 13 7.81646 13 8C13 9.65685 11.6569 11 10 11C9.81646 11 9.63676 10.9835 9.46232 10.952L3.70711 16.7071C3.31658 17.0976 2.68342 17.0976 2.29289 16.7071C1.93241 16.3466 1.90468 15.7794 2.2097 15.3871L2.29289 15.2929L7.68149 9.90396C7.25566 9.38601 7 8.72286 7 8C7 6.34315 8.34315 5 10 5C10.7229 5 11.386 5.25566 11.904 5.68149L17.2929 0.292893C17.6834 -0.0976311 18.3166 -0.0976311 18.7071 0.292893ZM10 7C9.44772 7 9 7.44772 9 8C9 8.16918 9.04201 8.32855 9.11618 8.46825L10.4682 7.11618C10.3286 7.04201 10.1692 7 10 7Z" fill="#151515"/>
</svg>
