<svg width="24" height="24" viewBox="0 0 24 24" fill="none" xmlns="http://www.w3.org/2000/svg">
<path d="M12 2C15.7855 2 18.8691 5.00478 18.9959 8.75935L19 9V16C19 16.5523 18.5523 17 18 17C17.4872 17 17.0645 16.614 17.0067 16.1166L17 16V9C17 6.23858 14.7614 4 12 4C9.31124 4 7.11818 6.12231 7.00462 8.78311L7 9V17C7 18.6569 8.34315 20 10 20C11.5977 20 12.9037 18.7511 12.9949 17.1763L13 17V9C13 8.44772 12.5523 8 12 8C11.4872 8 11.0645 8.38604 11.0067 8.88338L11 9V16C11 16.5523 10.5523 17 10 17C9.48716 17 9.06449 16.614 9.00673 16.1166L9 16V9C9 7.34315 10.3431 6 12 6C13.5977 6 14.9037 7.24892 14.9949 8.82373L15 9V17C15 19.7614 12.7614 22 10 22C7.31125 22 5.11818 19.8777 5.00462 17.2169L5 17V9C5 5.13401 8.13401 2 12 2Z" fill="black"/>
</svg>
