<svg width="16" height="12" viewBox="0 0 16 12" fill="none" xmlns="http://www.w3.org/2000/svg">
<path d="M5 10C5.55228 10 6 10.4477 6 11C6 11.5128 5.61396 11.9355 5.11662 11.9933L5 12H1C0.447715 12 0 11.5523 0 11C0 10.4872 0.38604 10.0645 0.883379 10.0067L1 10H5ZM10 5C10.5523 5 11 5.44772 11 6C11 6.51284 10.614 6.93551 10.1166 6.99327L10 7H1C0.447715 7 0 6.55228 0 6C0 5.48716 0.38604 5.06449 0.883379 5.00673L1 5H10ZM15 0C15.5523 0 16 0.447715 16 1C16 1.51284 15.614 1.93551 15.1166 1.99327L15 2H1C0.447715 2 0 1.55228 0 1C0 0.487164 0.38604 0.0644928 0.883379 0.0067277L1 0H15Z" fill="black"/>
</svg>
