<svg width="24" height="24" viewBox="0 0 24 24" fill="none" xmlns="http://www.w3.org/2000/svg">
<path d="M3.10545 4.44721C2.6922 3.62072 3.51938 2.74586 4.34776 3.06186L4.44709 3.10557L20.4471 11.1056C21.1454 11.4547 21.1821 12.4171 20.5573 12.8308L20.4471 12.8944L4.44709 20.8944C3.6206 21.3077 2.74574 20.4805 3.06174 19.6521L3.10545 19.5528L6.88088 12L3.10545 4.44721ZM6.23588 6.236L8.61761 10.9997L10.9999 11C11.5522 11 11.9999 11.4477 11.9999 12C11.9999 12.5128 11.6138 12.9355 11.1165 12.9933L10.9999 13L8.61761 12.9997L6.23588 17.763L17.7629 12L6.23588 6.236Z" fill="white"/>
</svg>
