<svg width="24" height="24" viewBox="0 0 24 24" fill="none" xmlns="http://www.w3.org/2000/svg">
<path d="M19 2C20.1046 2 21 2.89543 21 4V20C21 21.1046 20.1046 22 19 22H5C3.89543 22 3 21.1046 3 20V4C3 2.89543 3.89543 2 5 2H19ZM19 4H5V20H19V4Z" fill="black"/>
<path d="M7 13C7 12.4477 7.44772 12 8 12C8.55228 12 9 12.4477 9 13V17C9 17.5523 8.55228 18 8 18C7.44772 18 7 17.5523 7 17V13Z" fill="black"/>
<path d="M15 15C15 14.4477 15.4477 14 16 14C16.5523 14 17 14.4477 17 15V17C17 17.5523 16.5523 18 16 18C15.4477 18 15 17.5523 15 17V15Z" fill="black"/>
<path d="M11 9C11 8.44772 11.4477 8 12 8C12.5523 8 13 8.44772 13 9V17C13 17.5523 12.5523 18 12 18C11.4477 18 11 17.5523 11 17V9Z" fill="black"/>
</svg>
