<svg width="18" height="20" viewBox="0 0 18 20" fill="none" xmlns="http://www.w3.org/2000/svg">
<path d="M7.00406 4H5.00406V2C5.00406 0.89543 5.89949 0 7.00406 0H15.0041C16.1086 0 17.0041 0.89543 17.0041 2V18C17.0041 19.1046 16.1086 20 15.0041 20H7.00406C5.89949 20 5.00406 19.1046 5.00406 18V16H7.00406V18H15.0041V2H7.00406V4ZM4.41827 9H11.0041C11.5563 9 12.0041 9.44772 12.0041 10C12.0041 10.5523 11.5563 11 11.0041 11H4.41827L5.71116 12.2929C6.10169 12.6834 6.10169 13.3166 5.71116 13.7071C5.32064 14.0976 4.68747 14.0976 4.29695 13.7071L0.589844 10L4.29695 6.29289C4.68747 5.90237 5.32064 5.90237 5.71116 6.29289C6.10169 6.68342 6.10169 7.31658 5.71116 7.70711L4.41827 9Z" fill="#5589F1"/>
</svg>
