<svg width="22" height="28" viewBox="0 0 22 28" fill="none" xmlns="http://www.w3.org/2000/svg">
<path fill-rule="evenodd" clip-rule="evenodd" d="M8 0C7.73 0 7.48004 0.10503 7.29004 0.29303L0.290039 7.29303C0.110039 7.48003 0 7.735 0 8V23C0 25.761 2.24 28 5 28H17C19.76 28 22 25.761 22 23V5C22 2.239 19.76 0 17 0H8ZM8 8V2.414L2.41003 8H8ZM9 10H2V23C2 24.657 3.34 26 5 26H17C18.66 26 20 24.657 20 23V5C20 3.343 18.66 2 17 2H10V9C10 9.552 9.55 10 9 10Z" fill="black"/>
<path d="M14.7654 19.3686C15.0782 19.0386 15.0782 18.4973 14.7654 18.1673C14.4534 17.8374 13.9463 17.8374 13.6343 18.1673L11.8 20.1131L11.8 12.846C11.8 12.3807 11.4416 12 11 12C10.5584 12 10.2 12.3807 10.2 12.846L10.2 20.1131L8.36569 18.1673C8.05371 17.8374 7.54658 17.8374 7.23459 18.1673C6.9218 18.4973 6.9218 19.0386 7.23459 19.3686L10.4344 22.7525C10.7464 23.0825 11.2536 23.0825 11.5656 22.7525L14.7654 19.3686Z" fill="black"/>
</svg>
