<svg width="16" height="18" viewBox="0 0 16 18" fill="none" xmlns="http://www.w3.org/2000/svg">
<path d="M8.00006 12C11.0041 12 13.622 13.4959 15.8001 16.4C16.1314 16.8418 16.0419 17.4686 15.6001 17.8C15.1582 18.1314 14.5314 18.0418 14.2001 17.6C12.3781 15.1708 10.3293 14 8.00006 14C5.67081 14 3.62199 15.1708 1.80006 17.6C1.46869 18.0418 0.841887 18.1314 0.400059 17.8C-0.0417688 17.4686 -0.131312 16.8418 0.200059 16.4C2.37812 13.4959 4.99597 12 8.00006 12ZM8.07113 0C10.8326 0 13.0711 2.23858 13.0711 5C13.0711 7.76142 10.8326 10 8.07113 10C5.3097 10 3.07113 7.76142 3.07113 5C3.07113 2.23858 5.3097 0 8.07113 0ZM8.07113 2C6.41427 2 5.07113 3.34315 5.07113 5C5.07113 6.65685 6.41427 8 8.07113 8C9.72798 8 11.0711 6.65685 11.0711 5C11.0711 3.34315 9.72798 2 8.07113 2Z" fill="black"/>
</svg>
