<svg width="9" height="16" viewBox="0 0 9 16" fill="none" xmlns="http://www.w3.org/2000/svg">
<path d="M2.72 10.84C2.65333 10.1467 2.68667 9.56 2.82 9.08C2.95333 8.58667 3.13333 8.16667 3.36 7.82C3.6 7.46 3.86667 7.15333 4.16 6.9C4.46667 6.63333 4.74667 6.38 5 6.14C5.26667 5.9 5.48667 5.65333 5.66 5.4C5.83333 5.13333 5.92 4.82 5.92 4.46C5.92 3.99333 5.78667 3.62 5.52 3.34C5.26667 3.06 4.80667 2.92 4.14 2.92C3.92667 2.92 3.7 2.94667 3.46 3C3.22 3.04 2.98 3.10667 2.74 3.2C2.5 3.28 2.26667 3.38 2.04 3.5C1.82667 3.60667 1.63333 3.72 1.46 3.84L0.46 1.92C0.966667 1.57333 1.54667 1.28667 2.2 1.06C2.86667 0.833333 3.66667 0.719999 4.6 0.719999C5.85333 0.719999 6.83333 1.02667 7.54 1.64C8.24667 2.24 8.6 3.05333 8.6 4.08C8.6 4.76 8.50667 5.32667 8.32 5.78C8.14667 6.22 7.92667 6.6 7.66 6.92C7.39333 7.22667 7.1 7.5 6.78 7.74C6.46 7.98 6.16667 8.24 5.9 8.52C5.63333 8.78667 5.40667 9.1 5.22 9.46C5.03333 9.82 4.94 10.28 4.94 10.84H2.72ZM2.32 13.68C2.32 13.2133 2.46667 12.8467 2.76 12.58C3.05333 12.3 3.44 12.16 3.92 12.16C4.42667 12.16 4.82667 12.3 5.12 12.58C5.41333 12.8467 5.56 13.2133 5.56 13.68C5.56 14.1467 5.41333 14.52 5.12 14.8C4.82667 15.08 4.42667 15.22 3.92 15.22C3.44 15.22 3.05333 15.08 2.76 14.8C2.46667 14.52 2.32 14.1467 2.32 13.68Z" fill="#3A72E1"/>
</svg>
