<svg width="16" height="20" viewBox="0 0 16 20" fill="none" xmlns="http://www.w3.org/2000/svg">
<path d="M11 0L16 6V18C16 19.1046 15.1046 20 14 20H2C0.89543 20 0 19.1046 0 18V2C0 0.89543 0.89543 0 2 0H11ZM9 2H2V18H14V8H10C9.48716 8 9.06449 7.61396 9.00673 7.11662L9 7V2ZM11 14C11.5523 14 12 14.4477 12 15C12 15.5523 11.5523 16 11 16H5C4.44772 16 4 15.5523 4 15C4 14.4477 4.44772 14 5 14H11ZM11 10C11.5523 10 12 10.4477 12 11C12 11.5523 11.5523 12 11 12H5C4.44772 12 4 11.5523 4 11C4 10.4477 4.44772 10 5 10H11ZM13.397 6L11 3.124V6H13.397Z" fill="black"/>
</svg>
