<svg width="20" height="20" viewBox="0 0 20 20" fill="none" xmlns="http://www.w3.org/2000/svg">
<path d="M12 0C12.5522 0 13 0.447715 13 1L13.0002 2.58161C13.6948 2.86282 14.341 3.23875 14.9226 3.69338L16.2942 2.90192C16.7725 2.62578 17.3841 2.78966 17.6602 3.26795L19.6602 6.73205C19.9364 7.21034 19.7725 7.82193 19.2942 8.09808L17.9236 8.88986C17.9739 9.25269 18 9.62331 18 10C18 10.3767 17.9739 10.7473 17.9236 11.1101L19.2942 11.9019C19.7725 12.1781 19.9364 12.7897 19.6602 13.2679L17.6602 16.732C17.3841 17.2103 16.7725 17.3742 16.2942 17.0981L14.9226 16.3066C14.341 16.7613 13.6948 17.1372 13.0002 17.4184L13 19C13 19.5523 12.5522 20 12 20H7.99996C7.44768 20 6.99996 19.5523 6.99996 19L6.99999 17.4185C6.30527 17.1373 5.65904 16.7613 5.07733 16.3066L3.70573 17.0981C3.22744 17.3742 2.61585 17.2103 2.33971 16.732L0.339708 13.2679C0.0635656 12.7897 0.227441 12.1781 0.705733 11.9019L2.07637 11.1101C2.026 10.7473 1.99996 10.3767 1.99996 10C1.99996 9.62331 2.026 9.25269 2.07637 8.88986L0.705733 8.09808C0.227441 7.82193 0.0635656 7.21034 0.339708 6.73205L2.33971 3.26795C2.61585 2.78966 3.22744 2.62578 3.70573 2.90192L5.07733 3.69338C5.65904 3.23869 6.30527 2.86272 6.99999 2.58151L6.99996 1C6.99996 0.447715 7.44768 0 7.99996 0H12ZM11 2H8.99996L9.00002 3.92956L7.75041 4.43538C7.33704 4.60271 6.94396 4.81596 6.57815 5.07052L6.30902 5.26912L5.24618 6.0999L3.57096 5.133L2.57096 6.866L4.24248 7.83145L4.05737 9.16487C4.01925 9.43949 3.99996 9.71823 3.99996 10C3.99996 10.1878 4.00853 10.3743 4.02554 10.5592L4.05737 10.8351L4.24248 12.1685L2.57096 13.133L3.57096 14.866L5.24618 13.9001L6.30902 14.7309C6.66075 15.0058 7.04151 15.2406 7.4443 15.4306L7.75041 15.5646L9.00002 16.0704L8.99996 18H11L11.0004 16.0703L12.2497 15.5645C12.663 15.3972 13.056 15.184 13.4218 14.9295L13.6909 14.7309L14.7537 13.9001L16.428 14.866L17.428 13.133L15.7574 12.1685L15.9426 10.8351C15.9807 10.5605 16 10.2818 16 10C16 9.81215 15.9914 9.62565 15.9744 9.44082L15.9426 9.16487L15.7574 7.83145L17.428 6.866L16.428 5.133L14.7537 6.0999L13.6909 5.26912C13.3392 4.99422 12.9585 4.75948 12.5558 4.56949L12.2497 4.43547L11.0004 3.92971L11 2ZM9.99996 6C12.2091 6 14 7.79086 14 10C14 12.2091 12.2091 14 9.99996 14C7.79082 14 5.99996 12.2091 5.99996 10C5.99996 7.79086 7.79082 6 9.99996 6ZM9.99996 8C8.89539 8 7.99996 8.89543 7.99996 10C7.99996 11.1046 8.89539 12 9.99996 12C11.1045 12 12 11.1046 12 10C12 8.89543 11.1045 8 9.99996 8Z" fill="#151515"/>
</svg>
