<svg width="97" height="96" viewBox="0 0 97 96" fill="none" xmlns="http://www.w3.org/2000/svg">
<path d="M14.02 83.4C13.18 83.4 12.3 83.04 11.74 82.32C7.46 77.32 5.5 70.2 5.5 60V36C5.5 14.28 14.78 5 36.5 5H60.5C70.06 5 77.06 6.8 82.02 10.52C83.34 11.52 83.62 13.4 82.62 14.72C81.62 16.04 79.74 16.32 78.42 15.32C74.54 12.4 68.7 11 60.5 11H36.5C18.06 11 11.5 17.56 11.5 36V60C11.5 68.6 13.06 74.64 16.3 78.48C17.38 79.76 17.22 81.64 15.94 82.72C15.38 83.16 14.7 83.4 14.02 83.4Z" fill="#E9ECEE"/>
<path d="M60.5 91H36.5C33.34 91 30.5 90.8 27.9 90.44C26.26 90.2 25.14 88.68 25.38 87.04C25.62 85.4 27.18 84.28 28.78 84.52C31.06 84.84 33.66 85.04 36.5 85.04H60.5C78.94 85.04 85.5 78.48 85.5 60.04V36C85.5 34.68 85.46 33.36 85.38 32.16C85.26 30.52 86.54 29.08 88.18 28.96C89.9 28.88 91.26 30.12 91.38 31.76C91.46 33.12 91.5 34.52 91.5 36V60C91.5 81.72 82.22 91 60.5 91Z" fill="#E9ECEE"/>
<path d="M32.5 43C26.42 43 21.5 38.08 21.5 32C21.5 25.92 26.42 21 32.5 21C38.58 21 43.5 25.92 43.5 32C43.5 38.08 38.58 43 32.5 43ZM32.5 27C29.74 27 27.5 29.24 27.5 32C27.5 34.76 29.74 37 32.5 37C35.26 37 37.5 34.76 37.5 32C37.5 29.24 35.26 27 32.5 27Z" fill="#E9ECEE"/>
<path d="M8.49977 91C7.73977 91 6.97977 90.72 6.37977 90.12C5.21977 88.96 5.21977 87.04 6.37977 85.88L86.3798 5.88001C87.5398 4.72001 89.4598 4.72001 90.6198 5.88001C91.7798 7.04001 91.7798 8.96001 90.6198 10.12L10.6198 90.12C10.0198 90.72 9.25977 91 8.49977 91Z" fill="#E9ECEE"/>
<path d="M48.42 69.72C46.86 69.72 45.3 69.12 44.14 67.96C42.98 66.8 42.98 64.88 44.14 63.72C45.3 62.56 47.22 62.56 48.38 63.72C48.42 63.76 48.46 63.76 48.5 63.72L68.62 43.56C72.78 39.4 80.02 39.4 84.14 43.56L90.66 50.08C91.82 51.24 91.82 53.16 90.66 54.32C89.5 55.48 87.58 55.48 86.42 54.32L79.9 47.8C78.02 45.92 74.74 45.92 72.86 47.8L52.74 67.96C51.54 69.12 49.98 69.72 48.42 69.72Z" fill="#E9ECEE"/>
</svg>
